{
  "accessors": [
    {
      "bufferView": 2,
      "componentType": 5126,
      "count": 340,
      "max": [
        9.585634231567383,
        3.5950980186462402,
        10.884995460510254
      ],
      "min": [
        -8.2276029586792,
        1.0815155506134033,
        -6.868109226226807
      ],
      "type": "VEC3"
    },
    {
      "bufferView": 2,
      "byteOffset": 4080,
      "componentType": 5126,
      "count": 340,
      "max": [
        0.9693533182144165,
        1.0,
        0.9970434904098511
      ],
      "min": [
        -1.0,
        -0.21279199421405792,
        -0.999917209148407
      ],
      "type": "VEC3"
    },
    {
      "bufferView": 1,
      "componentType": 5126,
      "count": 340,
      "max": [
        0.8546348810195923,
        0.6985142230987549
      ],
      "min": [
        0.6681727170944214,
        0.23819689452648163
      ],
      "type": "VEC2"
    },
    {
      "bufferView": 0,
      "componentType": 5125,
      "count": 510,
      "type": "SCALAR"
    },
    {
      "bufferView": 2,
      "byteOffset": 8160,
      "componentType": 5126,
      "count": 32,
      "max": [
        2.4787559509277344,
        1.6771385669708252,
        10.38749885559082
      ],
      "min": [
        -7.028133869171143,
        1.3489634990692139,
        5.253142833709717
      ],
      "type": "VEC3"
    },
    {
      "bufferView": 2,
      "byteOffset": 8544,
      "componentType": 5126,
      "count": 32,
      "max": [
        0.09635297954082489,
        0.9999448657035828,
        0.10326705127954483
      ],
      "min": [
        -0.09029801934957504,
        0.9497155547142029,
        -0.3129861652851105
      ],
      "type": "VEC3"
    },
    {
      "bufferView": 1,
      "byteOffset": 2720,
      "componentType": 5126,
      "count": 32,
      "max": [
        0.3580990135669708,
        0.4830690026283264
      ],
      "min": [
        0.09525000303983688,
        0.34170499444007874
      ],
      "type": "VEC2"
    },
    {
      "bufferView": 0,
      "byteOffset": 2040,
      "componentType": 5125,
      "count": 126,
      "type": "SCALAR"
    },
    {
      "bufferView": 2,
      "byteOffset": 8928,
      "componentType": 5126,
      "count": 26422,
      "max": [
        11.657976150512695,
        11.594205856323242,
        12.028149604797363
      ],
      "min": [
        -9.073567390441895,
        -0.07783043384552002,
        -10.207018852233887
      ],
      "type": "VEC3"
    },
    {
      "bufferView": 2,
      "byteOffset": 325992,
      "componentType": 5126,
      "count": 26422,
      "max": [
        1.0,
        1.0,
        1.0
      ],
      "min": [
        -1.0,
        -1.0,
        -1.0
      ],
      "type": "VEC3"
    },
    {
      "bufferView": 1,
      "byteOffset": 2976,
      "componentType": 5126,
      "count": 26422,
      "max": [
        1.0056509971618652,
        0.9919440150260925
      ],
      "min": [
        0.022547999396920204,
        0.021469999104738235
      ],
      "type": "VEC2"
    },
    {
      "bufferView": 0,
      "byteOffset": 2544,
      "componentType": 5125,
      "count": 60810,
      "type": "SCALAR"
    },
    {
      "bufferView": 2,
      "byteOffset": 643056,
      "componentType": 5126,
      "count": 452,
      "max": [
        0.8056650161743164,
        1.6354436874389648,
        9.061849594116211
      ],
      "min": [
        -5.24561882019043,
        0.9387176036834717,
        6.7399067878723145
      ],
      "type": "VEC3"
    },
    {
      "bufferView": 2,
      "byteOffset": 648480,
      "componentType": 5126,
      "count": 452,
      "max": [
        0.9927705526351929,
        0.9924447536468506,
        0.9879693388938904
      ],
      "min": [
        -0.9626361131668091,
        -0.9862484931945801,
        -0.9962973594665527
      ],
      "type": "VEC3"
    },
    {
      "bufferView": 1,
      "byteOffset": 214352,
      "componentType": 5126,
      "count": 452,
      "max": [
        0.4339269995689392,
        0.8783509731292725
      ],
      "min": [
        0.15029999613761902,
        0.6248419880867004
      ],
      "type": "VEC2"
    },
    {
      "bufferView": 0,
      "byteOffset": 245784,
      "componentType": 5125,
      "count": 1842,
      "type": "SCALAR"
    },
    {
      "bufferView": 2,
      "byteOffset": 653904,
      "componentType": 5126,
      "count": 65532,
      "max": [
        11.495980262756348,
        14.498578071594238,
        11.503931999206543
      ],
      "min": [
        -8.34703540802002,
        0.5069141387939453,
        -8.485706329345703
      ],
      "type": "VEC3"
    },
    {
      "bufferView": 2,
      "byteOffset": 1440288,
      "componentType": 5126,
      "count": 65532,
      "max": [
        0.9998133778572083,
        1.0,
        1.0
      ],
      "min": [
        -0.9998133778572083,
        -1.0,
        -1.0
      ],
      "type": "VEC3"
    },
    {
      "bufferView": 1,
      "byteOffset": 217968,
      "componentType": 5126,
      "count": 65532,
      "max": [
        0.9905700087547302,
        0.9911580085754395
      ],
      "min": [
        0.016169000416994095,
        0.014034000225365162
      ],
      "type": "VEC2"
    },
    {
      "bufferView": 0,
      "byteOffset": 253152,
      "componentType": 5125,
      "count": 193470,
      "type": "SCALAR"
    },
    {
      "bufferView": 2,
      "byteOffset": 2226672,
      "componentType": 5126,
      "count": 6017,
      "max": [
        13.229000091552734,
        15.283223152160645,
        6.532287120819092
      ],
      "min": [
        -6.438879013061523,
        1.688314437866211,
        -9.212089538574219
      ],
      "type": "VEC3"
    },
    {
      "bufferView": 2,
      "byteOffset": 2298876,
      "componentType": 5126,
      "count": 6017,
      "max": [
        0.9994910955429077,
        1.0,
        0.9994909763336182
      ],
      "min": [
        -0.9994910955429077,
        -1.0,
        -0.9994910955429077
      ],
      "type": "VEC3"
    },
    {
      "bufferView": 1,
      "byteOffset": 742224,
      "componentType": 5126,
      "count": 6017,
      "max": [
        0.725163996219635,
        0.9921820163726807
      ],
      "min": [
        0.002673894166946411,
        0.01259700022637844
      ],
      "type": "VEC2"
    },
    {
      "bufferView": 0,
      "byteOffset": 1027032,
      "componentType": 5125,
      "count": 22005,
      "type": "SCALAR"
    }
  ],
  "asset": {
    "extras": {
      "author": "Laforce Bisong (https://sketchfab.com/LaforceBIsong)",
      "license": "CC-BY-NC-ND-4.0 (http://creativecommons.org/licenses/by-nc-nd/4.0/)",
      "source": "https://sketchfab.com/3d-models/asian-tea-house-laforce-bisong-279fa706864442648bee3a615340aaaa",
      "title": "Asian Tea house - Laforce Bisong"
    },
    "generator": "Sketchfab-12.63.0",
    "version": "2.0"
  },
  "bufferViews": [
    {
      "buffer": 0,
      "byteLength": 1115052,
      "name": "floatBufferViews",
      "target": 34963
    },
    {
      "buffer": 0,
      "byteLength": 790360,
      "byteOffset": 1115052,
      "byteStride": 8,
      "name": "floatBufferViews",
      "target": 34962
    },
    {
      "buffer": 0,
      "byteLength": 2371080,
      "byteOffset": 1905412,
      "byteStride": 12,
      "name": "floatBufferViews",
      "target": 34962
    }
  ],
  "buffers": [
    {
      "byteLength": 4276492,
      "uri": "scene.bin"
    }
  ],
  "images": [
    {
      "uri": "textures/plants_baseColor.png"
    },
    {
      "uri": "textures/water_baseColor.jpeg"
    },
    {
      "uri": "textures/Fishies_baseColor.png"
    },
    {
      "uri": "textures/lambert1_baseColor.jpeg"
    }
  ],
  "materials": [
    {
      "alphaMode": "BLEND",
      "doubleSided": true,
      "name": "plants",
      "pbrMetallicRoughness": {
        "baseColorTexture": {
          "index": 0
        },
        "metallicFactor": 0.0,
        "roughnessFactor": 0.6
      }
    },
    {
      "alphaMode": "BLEND",
      "doubleSided": true,
      "name": "water",
      "pbrMetallicRoughness": {
        "baseColorFactor": [
          1.0,
          1.0,
          1.0,
          0.8
        ],
        "baseColorTexture": {
          "index": 1
        },
        "metallicFactor": 0.0,
        "roughnessFactor": 0.6
      }
    },
    {
      "doubleSided": true,
      "name": "lambert2",
      "pbrMetallicRoughness": {
        "baseColorTexture": {
          "index": 1
        },
        "metallicFactor": 0.0,
        "roughnessFactor": 0.6
      }
    },
    {
      "alphaMode": "BLEND",
      "doubleSided": true,
      "name": "Fishies",
      "pbrMetallicRoughness": {
        "baseColorTexture": {
          "index": 2
        },
        "metallicFactor": 0.0,
        "roughnessFactor": 0.6
      }
    },
    {
      "doubleSided": true,
      "name": "lambert1",
      "pbrMetallicRoughness": {
        "baseColorTexture": {
          "index": 3
        },
        "metallicFactor": 0.0
      }
    }
  ],
  "meshes": [
    {
      "name": "plants1_plants_0",
      "primitives": [
        {
          "attributes": {
            "NORMAL": 1,
            "POSITION": 0,
            "TEXCOORD_0": 2
          },
          "indices": 3,
          "material": 0,
          "mode": 4
        }
      ]
    },
    {
      "name": "water1_water_0",
      "primitives": [
        {
          "attributes": {
            "NORMAL": 5,
            "POSITION": 4,
            "TEXCOORD_0": 6
          },
          "indices": 7,
          "material": 1,
          "mode": 4
        }
      ]
    },
    {
      "name": "ground_lambert2_0",
      "primitives": [
        {
          "attributes": {
            "NORMAL": 9,
            "POSITION": 8,
            "TEXCOORD_0": 10
          },
          "indices": 11,
          "material": 2,
          "mode": 4
        }
      ]
    },
    {
      "name": "fishes_Fishies_0",
      "primitives": [
        {
          "attributes": {
            "NORMAL": 13,
            "POSITION": 12,
            "TEXCOORD_0": 14
          },
          "indices": 15,
          "material": 3,
          "mode": 4
        }
      ]
    },
    {
      "name": "main_lambert1_0",
      "primitives": [
        {
          "attributes": {
            "NORMAL": 17,
            "POSITION": 16,
            "TEXCOORD_0": 18
          },
          "indices": 19,
          "material": 4,
          "mode": 4
        }
      ]
    },
    {
      "name": "main_lambert1_0",
      "primitives": [
        {
          "attributes": {
            "NORMAL": 21,
            "POSITION": 20,
            "TEXCOORD_0": 22
          },
          "indices": 23,
          "material": 4,
          "mode": 4
        }
      ]
    }
  ],
  "nodes": [
    {
      "children": [
        1
      ],
      "matrix": [
        0.825254499912262,
        0.0,
        0.0,
        0.0,
        0.0,
        1.832433093956225e-16,
        -0.825254499912262,
        0.0,
        0.0,
        0.825254499912262,
        1.832433093956225e-16,
        0.0,
        0.0,
        0.0,
        0.0,
        1.0
      ],
      "name": "Sketchfab_model"
    },
    {
      "children": [
        2
      ],
      "matrix": [
        1.0,
        0.0,
        0.0,
        0.0,
        0.0,
        0.0,
        1.0,
        0.0,
        0.0,
        -1.0,
        0.0,
        0.0,
        0.0,
        0.0,
        0.0,
        1.0
      ],
      "name": "6b4b583d570d4cf28a25473129a95c5a.fbx"
    },
    {
      "children": [
        3,
        10,
        12
      ],
      "name": "RootNode"
    },
    {
      "children": [
        4,
        6,
        8
      ],
      "name": "vegitation"
    },
    {
      "children": [
        5
      ],
      "name": "plants1"
    },
    {
      "mesh": 0,
      "name": "plants1_plants_0"
    },
    {
      "children": [
        7
      ],
      "name": "water1"
    },
    {
      "mesh": 1,
      "name": "water1_water_0"
    },
    {
      "children": [
        9
      ],
      "name": "ground"
    },
    {
      "mesh": 2,
      "name": "ground_lambert2_0"
    },
    {
      "children": [
        11
      ],
      "name": "fishes"
    },
    {
      "mesh": 3,
      "name": "fishes_Fishies_0"
    },
    {
      "children": [
        13,
        14
      ],
      "name": "main"
    },
    {
      "mesh": 4,
      "name": "main_lambert1_0"
    },
    {
      "mesh": 5,
      "name": "main_lambert1_0"
    }
  ],
  "samplers": [
    {
      "magFilter": 9729,
      "minFilter": 9987,
      "wrapS": 10497,
      "wrapT": 10497
    }
  ],
  "scene": 0,
  "scenes": [
    {
      "name": "Sketchfab_Scene",
      "nodes": [
        0
      ]
    }
  ],
  "textures": [
    {
      "sampler": 0,
      "source": 0
    },
    {
      "sampler": 0,
      "source": 1
    },
    {
      "sampler": 0,
      "source": 2
    },
    {
      "sampler": 0,
      "source": 3
    }
  ]
}
