{
  "accessors": [
    {
      "bufferView": 2,
      "componentType": 5126,
      "count": 618,
      "max": [
        0.4731382727622986,
        1.0,
        0.08374806493520737
      ],
      "min": [
        -0.48138517141342163,
        -1.0,
        -0.013780854642391205
      ],
      "type": "VEC3"
    },
    {
      "bufferView": 2,
      "byteOffset": 7416,
      "componentType": 5126,
      "count": 618,
      "max": [
        0.9969192743301392,
        0.9969192743301392,
        1.0
      ],
      "min": [
        -0.9969192743301392,
        -0.9969192743301392,
        -1.0
      ],
      "type": "VEC3"
    },
    {
      "bufferView": 1,
      "componentType": 5126,
      "count": 618,
      "max": [
        0.9849408864974976,
        0.9819846153259277
      ],
      "min": [
        0.015152856707572937,
        0.016387537121772766
      ],
      "type": "VEC2"
    },
    {
      "bufferView": 0,
      "componentType": 5125,
      "count": 2556,
      "type": "SCALAR"
    },
    {
      "bufferView": 2,
      "byteOffset": 14832,
      "componentType": 5126,
      "count": 24,
      "max": [
        0.45527970790863037,
        0.9722437858581543,
        0.08374805748462677
      ],
      "min": [
        -0.45527976751327515,
        -0.9722437858581543,
        0.08374778926372528
      ],
      "type": "VEC3"
    },
    {
      "bufferView": 2,
      "byteOffset": 15120,
      "componentType": 5126,
      "count": 24,
      "max": [
        0.0,
        0.0,
        1.0
      ],
      "min": [
        0.0,
        0.0,
        1.0
      ],
      "type": "VEC3"
    },
    {
      "bufferView": 1,
      "byteOffset": 4944,
      "componentType": 5126,
      "count": 24,
      "max": [
        0.9750179052352905,
        0.806904673576355
      ],
      "min": [
        0.6147258281707764,
        0.03750581294298172
      ],
      "type": "VEC2"
    },
    {
      "bufferView": 0,
      "byteOffset": 10224,
      "componentType": 5125,
      "count": 66,
      "type": "SCALAR"
    }
  ],
  "asset": {
    "extras": {
      "author": "Agustín Hönnun (https://sketchfab.com/Agustin_Honnun)",
      "license": "CC-BY-4.0 (http://creativecommons.org/licenses/by/4.0/)",
      "source": "https://sketchfab.com/3d-models/mobile-phone-86bc31adcf1c43a085a29b350b03984d",
      "title": "Mobile Phone"
    },
    "generator": "Sketchfab-12.67.0",
    "version": "2.0"
  },
  "bufferViews": [
    {
      "buffer": 0,
      "byteLength": 10488,
      "name": "floatBufferViews",
      "target": 34963
    },
    {
      "buffer": 0,
      "byteLength": 5136,
      "byteOffset": 10488,
      "byteStride": 8,
      "name": "floatBufferViews",
      "target": 34962
    },
    {
      "buffer": 0,
      "byteLength": 15408,
      "byteOffset": 15624,
      "byteStride": 12,
      "name": "floatBufferViews",
      "target": 34962
    }
  ],
  "buffers": [
    {
      "byteLength": 31032,
      "uri": "scene.bin"
    }
  ],
  "images": [
    {
      "uri": "textures/Metallico_baseColor.png"
    },
    {
      "uri": "textures/Metallico_metallicRoughness.png"
    }
  ],
  "materials": [
    {
      "doubleSided": true,
      "name": "Metallico",
      "pbrMetallicRoughness": {
        "baseColorTexture": {
          "index": 0
        },
        "metallicRoughnessTexture": {
          "index": 1
        }
      }
    },
    {
      "doubleSided": true,
      "name": "Diffuse",
      "pbrMetallicRoughness": {
        "baseColorTexture": {
          "index": 0
        },
        "metallicFactor": 0.0
      }
    }
  ],
  "meshes": [
    {
      "name": "Plane.001_Metallico_0",
      "primitives": [
        {
          "attributes": {
            "NORMAL": 1,
            "POSITION": 0,
            "TEXCOORD_0": 2
          },
          "indices": 3,
          "material": 0,
          "mode": 4
        }
      ]
    },
    {
      "name": "Plane.001_Diffuse_0",
      "primitives": [
        {
          "attributes": {
            "NORMAL": 5,
            "POSITION": 4,
            "TEXCOORD_0": 6
          },
          "indices": 7,
          "material": 1,
          "mode": 4
        }
      ]
    }
  ],
  "nodes": [
    {
      "children": [
        1
      ],
      "matrix": [
        1.0,
        0.0,
        0.0,
        0.0,
        0.0,
        2.220446049250313e-16,
        -1.0,
        0.0,
        0.0,
        1.0,
        2.220446049250313e-16,
        0.0,
        0.0,
        0.0,
        0.0,
        1.0
      ],
      "name": "Sketchfab_model"
    },
    {
      "children": [
        2
      ],
      "matrix": [
        1.0,
        0.0,
        0.0,
        0.0,
        0.0,
        0.0,
        1.0,
        0.0,
        0.0,
        -1.0,
        0.0,
        0.0,
        0.0,
        0.0,
        0.0,
        1.0
      ],
      "name": "59a6179b2ca547b9bc64d4a527966703.fbx"
    },
    {
      "children": [
        3
      ],
      "name": "RootNode"
    },
    {
      "children": [
        4,
        5
      ],
      "matrix": [
        99.99999999999392,
        -1.748455531469429e-05,
        3.0199160505616878e-05,
        0.0,
        1.748455759466656e-05,
        99.9999999999982,
        -7.5497844420621e-06,
        0.0,
        -3.019915918557009e-05,
        7.549789722251251e-06,
        99.99999999999515,
        0.0,
        0.0,
        112.72444915771484,
        0.0,
        1.0
      ],
      "name": "Plane.001"
    },
    {
      "mesh": 0,
      "name": "Plane.001_Metallico_0"
    },
    {
      "mesh": 1,
      "name": "Plane.001_Diffuse_0"
    }
  ],
  "samplers": [
    {
      "magFilter": 9729,
      "minFilter": 9987,
      "wrapS": 10497,
      "wrapT": 10497
    }
  ],
  "scene": 0,
  "scenes": [
    {
      "name": "Sketchfab_Scene",
      "nodes": [
        0
      ]
    }
  ],
  "textures": [
    {
      "sampler": 0,
      "source": 0
    },
    {
      "sampler": 0,
      "source": 1
    }
  ]
}
